<?xml version="1.0" encoding="UTF-8" standalone="no"?>
<svg
   xmlns:dc="http://purl.org/dc/elements/1.1/"
   xmlns:cc="http://creativecommons.org/ns#"
   xmlns:rdf="http://www.w3.org/1999/02/22-rdf-syntax-ns#"
   xmlns:svg="http://www.w3.org/2000/svg"
   xmlns="http://www.w3.org/2000/svg"
   xmlns:sodipodi="http://sodipodi.sourceforge.net/DTD/sodipodi-0.dtd"
   xmlns:inkscape="http://www.inkscape.org/namespaces/inkscape"
   version="1.1"
   id="Frame_0"
   width="1054"
   height="720"
   sodipodi:docname="logo.svg"
   inkscape:version="1.0.2 (e86c8708, 2021-01-15)">
  <metadata
     id="metadata875">
    <rdf:RDF>
      <cc:Work
         rdf:about="">
        <dc:format>image/svg+xml</dc:format>
        <dc:type
           rdf:resource="http://purl.org/dc/dcmitype/StillImage" />
        <dc:title />
      </cc:Work>
    </rdf:RDF>
  </metadata>
  <defs
     id="defs873">
    <rect
       x="511.58575"
       y="149.12621"
       width="563.36566"
       height="459.80582"
       id="rect879" />
  </defs>
  <sodipodi:namedview
     pagecolor="#ffffff"
     bordercolor="#666666"
     borderopacity="1"
     objecttolerance="10"
     gridtolerance="10"
     guidetolerance="10"
     inkscape:pageopacity="0"
     inkscape:pageshadow="2"
     inkscape:window-width="1352"
     inkscape:window-height="745"
     id="namedview871"
     showgrid="false"
     inkscape:zoom="0.4828125"
     inkscape:cx="640"
     inkscape:cy="360"
     inkscape:window-x="0"
     inkscape:window-y="25"
     inkscape:window-maximized="0"
     inkscape:current-layer="Frame_0"
     inkscape:document-rotation="0" />
  <g
     id="Layer_6"
     transform="translate(-410.09709,14.498382)">
    <path
       fill="#498a0c"
       fill-rule="evenodd"
       stroke="none"
       d="m 663.736,40.658 c 0.857,2.389 1.356,5.764 1.937,8.234 10e-4,-0.001 6.534,-3.206 9.525,-4.037 1.841,-0.511 4.385,-0.982 6.296,-0.968 1.521,0.011 3.641,0.135 5.005,0.807 1.629,0.802 3.621,2.539 4.359,4.198 1.082,2.434 0.193,6.222 0,8.879 -0.238,3.272 -0.883,7.618 -1.615,10.817 -1.34,5.852 -4.294,13.334 -6.135,19.049 0.001,0 4.96,-0.869 7.104,-0.807 2.013,0.058 4.731,0.428 6.619,1.13 1.261,0.469 3.163,1.118 3.874,2.26 1.562,2.509 0.603,6.994 -0.161,9.849 -1.63,6.093 -7.517,12.655 -10.912,17.972 -1.731,2.711 -4.163,6.246 -5.948,8.922 10e-4,0 7.109,1.217 9.666,2.825 1.71,1.076 3.573,3.174 4.61,4.908 0.608,1.017 1.403,2.534 1.338,3.717 -0.12,2.194 -2.158,4.711 -3.569,6.395 -1.905,2.275 -5.403,4.328 -7.73,6.17 -3.692,2.923 -9.049,6.329 -12.348,9.688 -3.794,3.863 -8.02,9.81 -10.829,14.439 -2.235,3.682 -4.807,8.866 -6.269,12.918 -1.196,3.316 -2.302,7.917 -2.85,11.399 -1.169,7.435 -0.931,17.539 -1.33,25.055 10e-4,-0.001 6.506,-7.626 9.502,-10.701 2.727,-2.798 6.552,-6.344 9.503,-8.903 1.697,-1.472 4.25,-3.104 5.821,-4.709 2.263,-2.31 4.966,-5.745 6.527,-8.577 2.077,-3.766 3.315,-9.475 4.9,-13.473 1.495,-3.772 3.342,-8.893 5.337,-12.425 1.842,-3.259 4.499,-7.623 7.262,-10.149 1.124,-1.027 2.881,-2.131 4.287,-2.712 1.21,-0.501 2.967,-1.215 4.254,-0.976 1.412,0.262 2.918,1.705 3.947,2.706 1.142,1.11 2.372,2.889 3.106,4.302 0.835,1.61 1.71,3.925 1.951,5.722 1.819,-0.984 3.094,-2.895 4.347,-3.992 1.88,-1.647 4.523,-3.715 6.676,-4.984 1.643,-0.97 3.944,-2.134 5.78,-2.653 1.78,-0.503 4.273,-0.859 6.12,-0.747 1.486,0.09 3.513,0.455 4.828,1.156 1.503,0.801 3.123,2.515 4.148,3.875 0.911,1.21 1.618,3.142 2.312,4.488 10e-4,0 4.647,-2.951 6.85,-3.748 2.739,-0.991 6.628,-1.779 9.541,-1.802 1.254,-0.01 2.953,0.186 4.136,0.601 1.728,0.606 4.017,1.784 5.216,3.167 1.017,1.174 1.78,3.217 2.083,4.74 0.332,1.67 0.058,3.983 -0.144,5.674 -0.079,0.654 -0.302,1.508 -0.431,2.154 0,0.001 3.716,1.084 5.243,1.724 2.218,0.929 5.201,2.245 7.104,3.715 1.79,1.383 3.875,3.657 5.079,5.571 0.739,1.175 1.786,2.872 1.803,4.26 0.025,2.091 -1.637,4.642 -2.786,6.39 -1.127,1.714 -3.068,3.714 -4.669,4.997 -1.619,1.297 -4.054,2.69 -5.963,3.503 -1.652,0.704 -4.029,1.151 -5.756,1.645 10e-4,0.001 3.576,4.697 4.486,7.027 0.705,1.807 1.726,4.488 1.196,6.354 -0.633,2.228 -3.274,4.498 -5.308,5.607 -2.023,1.103 -5.253,1.231 -7.55,1.42 -3.131,0.257 -7.342,0.031 -10.466,-0.299 -3.766,-0.398 -8.686,-1.622 -12.409,-2.318 0,0.001 0.582,2.287 0.673,3.29 0.144,1.593 0.308,3.803 -0.168,5.33 -0.486,1.563 -1.579,3.705 -2.96,4.584 -1.559,0.992 -4.27,0.911 -6.112,0.764 -2.963,-0.236 -6.745,-1.738 -9.455,-2.96 -3.399,-1.534 -7.42,-4.546 -10.6,-6.494 0,0 -0.587,3.836 -1.242,5.347 -0.713,1.648 -1.858,3.956 -3.342,4.967 -1.241,0.845 -3.378,1.298 -4.871,1.146 -2.562,-0.262 -5.547,-2.415 -7.64,-3.916 -1.594,-1.142 -3.387,-3.082 -4.725,-4.515 -2.604,-2.791 -5.641,-6.892 -8.059,-9.845 0,0 -2.865,-0.514 -4.105,-0.495 -1.153,0.018 -2.684,0.285 -3.801,0.571 -1.977,0.506 -4.643,1.318 -6.358,2.425 -2.907,1.876 -6.129,5.397 -7.992,8.312 -2.298,3.595 -3.876,9.195 -5.051,13.297 -1.15,4.021 -2.192,9.526 -2.699,13.677 -0.649,5.308 -0.775,12.46 -0.795,17.808 -0.011,2.697 0.2,6.29 0.287,8.986 -0.002,0 -11.602,0.14 -16.574,0.2 0,-0.026 -0.28,-183.513 -0.4,-262.162 0,0 0.826,-0.016 1.181,-0.023 1.994,0.152 4.507,1.44 6.137,2.597 1.958,1.39 3.971,3.992 5.327,5.974 1.835,2.681 3.746,6.628 4.844,9.686 M 647.428,22.401 c 0,0 0,0 0,0 M 720.77,164.76 c 0.113,0.096 0.321,-0.138 0.444,-0.222 -0.437,0.097 -0.484,0.187 -0.444,0.222 z"
       id="path833" />
    <path
       fill="none"
       stroke="#498a0c"
       stroke-width="1"
       stroke-linecap="round"
       stroke-linejoin="round"
       d="m 665.673,48.892 c 0,0 0,0 0,0 -0.581,-2.47 -1.08,-5.845 -1.937,-8.234 -1.098,-3.058 -3.009,-7.005 -4.844,-9.686 -1.356,-1.982 -3.369,-4.584 -5.327,-5.974 -1.63,-1.157 -4.143,-2.445 -6.137,-2.597 0,0 0,0 0,0 -0.355,0.007 -1.181,0.023 -1.181,0.023 0,0 0,0 0,0 0.12,78.649 0.4,262.136 0.4,262.162 0,0 0,0 0,0 4.972,-0.06 16.572,-0.2 16.574,-0.2 0,0 0,0 0,0 -0.087,-2.696 -0.298,-6.289 -0.287,-8.986 0.02,-5.348 0.146,-12.5 0.795,-17.808 0.507,-4.151 1.549,-9.656 2.699,-13.677 1.175,-4.102 2.753,-9.702 5.051,-13.297 1.863,-2.915 5.085,-6.436 7.992,-8.312 1.715,-1.107 4.381,-1.919 6.358,-2.425 1.117,-0.286 2.648,-0.553 3.801,-0.571 1.24,-0.019 4.105,0.495 4.105,0.495 0,0 0,0 0,0 2.418,2.953 5.455,7.054 8.059,9.845 1.338,1.433 3.131,3.373 4.725,4.515 2.093,1.501 5.078,3.654 7.64,3.916 1.493,0.152 3.63,-0.301 4.871,-1.146 1.484,-1.011 2.629,-3.319 3.342,-4.967 0.655,-1.511 1.242,-5.347 1.242,-5.347 0,0 0,0 0,0 3.18,1.948 7.201,4.96 10.6,6.494 2.71,1.222 6.492,2.724 9.455,2.96 1.842,0.147 4.553,0.228 6.112,-0.764 1.381,-0.879 2.474,-3.021 2.96,-4.584 0.476,-1.527 0.312,-3.737 0.168,-5.33 -0.091,-1.003 -0.673,-3.289 -0.673,-3.29 0,0 0,0 0,0 3.723,0.696 8.643,1.92 12.409,2.318 3.124,0.33 7.335,0.556 10.466,0.299 2.297,-0.189 5.527,-0.317 7.55,-1.42 2.034,-1.109 4.675,-3.379 5.308,-5.607 0.53,-1.866 -0.491,-4.547 -1.196,-6.354 -0.91,-2.33 -4.485,-7.026 -4.486,-7.027 0,0 0,0 0,0 1.727,-0.494 4.104,-0.941 5.756,-1.645 1.909,-0.813 4.344,-2.206 5.963,-3.503 1.601,-1.283 3.542,-3.283 4.669,-4.997 1.149,-1.748 2.811,-4.299 2.786,-6.39 -0.017,-1.388 -1.064,-3.085 -1.803,-4.26 -1.204,-1.914 -3.289,-4.188 -5.079,-5.571 -1.903,-1.47 -4.886,-2.786 -7.104,-3.715 -1.527,-0.64 -5.243,-1.723 -5.243,-1.724 0,0 0,0 0,0 0.129,-0.646 0.352,-1.5 0.431,-2.154 0.202,-1.691 0.476,-4.004 0.144,-5.674 -0.303,-1.523 -1.066,-3.566 -2.083,-4.74 -1.199,-1.383 -3.488,-2.561 -5.216,-3.167 -1.183,-0.415 -2.882,-0.611 -4.136,-0.601 -2.913,0.023 -6.802,0.811 -9.541,1.802 -2.203,0.797 -6.849,3.748 -6.85,3.748 0,0 0,0 0,0 -0.694,-1.346 -1.401,-3.278 -2.312,-4.488 -1.025,-1.36 -2.645,-3.074 -4.148,-3.875 -1.315,-0.701 -3.342,-1.066 -4.828,-1.156 -1.847,-0.112 -4.34,0.244 -6.12,0.747 -1.836,0.519 -4.137,1.683 -5.78,2.653 -2.153,1.269 -4.796,3.337 -6.676,4.984 -1.253,1.097 -2.528,3.008 -3.903,3.948 -0.123,0.084 -0.331,0.318 -0.444,0.222 0.007,-0.125 -0.04,-0.035 0,0 -0.241,-1.975 -1.116,-4.29 -1.951,-5.9 -0.734,-1.413 -1.964,-3.192 -3.106,-4.302 -1.029,-1.001 -2.535,-2.444 -3.947,-2.706 -1.287,-0.239 -3.044,0.475 -4.254,0.976 -1.406,0.581 -3.163,1.685 -4.287,2.712 -2.763,2.526 -5.42,6.89 -7.262,10.149 -1.995,3.532 -3.842,8.653 -5.337,12.425 -1.585,3.998 -2.823,9.707 -4.9,13.473 -1.561,2.832 -4.264,6.267 -6.527,8.577 -1.571,1.605 -4.124,3.237 -5.821,4.709 -2.951,2.559 -6.776,6.105 -9.503,8.903 -2.996,3.075 -9.501,10.7 -9.502,10.701 0,0 0,0 0,0 0.399,-7.516 0.161,-17.62 1.33,-25.055 0.548,-3.482 1.654,-8.083 2.85,-11.399 1.462,-4.052 4.034,-9.236 6.269,-12.918 2.809,-4.629 7.035,-10.576 10.829,-14.439 3.299,-3.359 8.656,-6.765 12.348,-9.688 2.327,-1.842 5.825,-3.895 7.73,-6.17 1.411,-1.684 3.449,-4.201 3.569,-6.395 0.065,-1.183 -0.73,-2.7 -1.338,-3.717 -1.037,-1.734 -2.9,-3.832 -4.61,-4.908 -2.557,-1.608 -9.665,-2.825 -9.666,-2.825 0,0 0,0 0,0 1.785,-2.676 4.217,-6.211 5.948,-8.922 3.395,-5.317 9.282,-11.879 10.912,-17.972 0.764,-2.855 1.723,-7.34 0.161,-9.849 -0.711,-1.142 -2.613,-1.791 -3.874,-2.26 -1.888,-0.702 -4.606,-1.072 -6.619,-1.13 -2.144,-0.062 -7.103,0.807 -7.104,0.807 0,0 0,0 0,0 1.841,-5.715 4.795,-13.197 6.135,-19.049 0.732,-3.199 1.377,-7.545 1.615,-10.817 0.193,-2.657 1.082,-6.445 0,-8.879 -0.738,-1.659 -2.73,-3.396 -4.359,-4.198 -1.364,-0.672 -3.484,-0.796 -5.005,-0.807 -1.911,-0.014 -4.455,0.457 -6.296,0.968 -2.991,0.831 -9.524,4.036 -9.525,4.037"
       id="path835" />
    <path
       fill="#75aa00"
       fill-rule="evenodd"
       stroke="none"
       d="m 629.05,40.658 c -0.844,2.391 -1.333,5.764 -1.904,8.234 -10e-4,-0.001 -6.421,-3.206 -9.366,-4.037 -1.809,-0.51 -4.311,-0.982 -6.191,-0.968 -1.496,0.011 -3.582,0.139 -4.921,0.807 -1.61,0.804 -3.562,2.55 -4.286,4.198 -1.072,2.438 -0.19,6.222 0,8.879 0.234,3.271 0.867,7.617 1.588,10.817 1.317,5.848 4.222,13.334 6.032,19.049 -10e-4,0 -4.876,-0.869 -6.985,-0.807 -1.981,0.058 -4.654,0.43 -6.508,1.13 -1.244,0.47 -3.111,1.13 -3.81,2.26 -1.553,2.514 -0.594,6.991 0.159,9.849 1.602,6.071 7.391,12.654 10.729,17.972 1.702,2.711 4.094,6.246 5.849,8.922 -0.001,0 -6.997,1.226 -9.505,2.825 -1.689,1.078 -3.515,3.181 -4.532,4.908 -0.601,1.019 -1.38,2.536 -1.316,3.717 0.119,2.185 2.117,4.707 3.509,6.395 1.869,2.266 5.313,4.328 7.601,6.17 3.63,2.922 8.903,6.337 12.141,9.688 3.74,3.871 7.89,9.817 10.648,14.439 2.201,3.687 4.728,8.872 6.164,12.918 1.178,3.319 2.264,7.919 2.802,11.399 1.151,7.438 0.916,17.539 1.309,25.055 -10e-4,-0.001 -6.395,-7.624 -9.344,-10.701 -2.679,-2.796 -6.44,-6.342 -9.344,-8.903 -1.667,-1.471 -4.181,-3.108 -5.723,-4.709 -2.23,-2.314 -4.885,-5.752 -6.418,-8.577 -2.048,-3.772 -3.259,-9.474 -4.818,-13.473 -1.469,-3.77 -3.282,-8.888 -5.248,-12.425 -1.808,-3.254 -4.411,-7.617 -7.14,-10.149 -1.102,-1.023 -2.829,-2.13 -4.215,-2.712 -1.188,-0.5 -2.917,-1.214 -4.183,-0.976 -1.395,0.262 -2.872,1.708 -3.882,2.706 -1.125,1.112 -2.333,2.893 -3.053,4.302 -0.824,1.613 -1.682,3.927 -1.918,5.722 -1.794,-0.986 -3.041,-2.894 -4.275,-3.992 -1.846,-1.644 -4.443,-3.713 -6.563,-4.984 -1.614,-0.968 -3.875,-2.133 -5.684,-2.653 -1.748,-0.502 -4.202,-0.859 -6.018,-0.747 -1.462,0.09 -3.457,0.459 -4.747,1.156 -1.484,0.802 -3.073,2.519 -4.078,3.875 -0.899,1.213 -1.592,3.142 -2.274,4.488 -10e-4,0 -4.565,-2.95 -6.736,-3.748 -2.689,-0.989 -6.515,-1.779 -9.381,-1.802 -1.233,-0.01 -2.905,0.187 -4.067,0.601 -1.703,0.607 -3.952,1.793 -5.128,3.167 -1.007,1.177 -1.75,3.22 -2.048,4.74 -0.328,1.671 -0.057,3.983 0.141,5.674 0.077,0.654 0.297,1.508 0.424,2.154 0,0.001 -3.655,1.085 -5.155,1.724 -2.184,0.93 -5.118,2.25 -6.986,3.715 -1.765,1.386 -3.812,3.663 -4.993,5.571 -0.729,1.177 -1.757,2.876 -1.773,4.26 -0.024,2.085 1.606,4.639 2.739,6.39 1.106,1.709 3.012,3.711 4.591,4.997 1.589,1.293 3.983,2.689 5.863,3.503 1.623,0.703 3.962,1.151 5.66,1.645 -10e-4,0.001 -3.517,4.704 -4.41,7.027 -0.696,1.809 -1.703,4.488 -1.177,6.354 0.624,2.211 3.207,4.495 5.219,5.607 1.985,1.096 5.164,1.231 7.424,1.42 3.078,0.257 7.22,0.03 10.291,-0.299 3.704,-0.398 8.54,-1.622 12.201,-2.318 0,0.001 -0.572,2.287 -0.661,3.29 -0.143,1.593 -0.305,3.801 0.164,5.33 0.478,1.558 1.54,3.704 2.911,4.584 1.529,0.982 4.198,0.91 6.01,0.764 2.917,-0.236 6.636,-1.741 9.296,-2.96 3.349,-1.536 7.296,-4.546 10.423,-6.494 10e-4,0 0.576,3.834 1.221,5.347 0.701,1.644 1.815,3.954 3.287,4.967 1.216,0.838 3.319,1.298 4.789,1.146 2.528,-0.262 5.459,-2.419 7.512,-3.916 1.571,-1.144 3.332,-3.084 4.646,-4.515 2.564,-2.794 5.547,-6.892 7.924,-9.845 0,0 2.817,-0.514 4.036,-0.495 1.134,0.018 2.64,0.285 3.737,0.571 1.947,0.507 4.57,1.323 6.253,2.425 2.87,1.881 6.03,5.408 7.857,8.312 2.269,3.604 3.813,9.198 4.967,13.297 1.132,4.024 2.156,9.527 2.654,13.677 0.638,5.31 0.762,12.461 0.782,17.808 0.01,2.697 -0.197,6.29 -0.282,8.986 0.002,0 11.407,0.14 16.296,0.2 0,-0.026 0.276,-183.513 0.394,-262.162 0,0 -0.813,-0.016 -1.161,-0.023 -1.966,0.162 -4.436,1.445 -6.035,2.597 -1.934,1.394 -3.907,3.996 -5.238,5.974 -1.809,2.686 -3.685,6.633 -4.763,9.686 m 16.036,-18.257 c 0,0 0,0 0,0 M 572.971,164.76 c -0.113,0.094 -0.316,-0.138 -0.437,-0.222 0.43,0.097 0.477,0.187 0.437,0.222 z"
       id="path837" />
    <path
       fill="none"
       stroke="#75aa00"
       stroke-width="1"
       stroke-linecap="round"
       stroke-linejoin="round"
       d="m 627.146,48.892 c 0,0 0,0 0,0 0.571,-2.47 1.06,-5.843 1.904,-8.234 1.078,-3.053 2.954,-7 4.763,-9.686 1.331,-1.978 3.304,-4.58 5.238,-5.974 1.599,-1.152 4.069,-2.435 6.035,-2.597 0,0 0,0 0,0 0.348,0.007 1.161,0.023 1.161,0.023 0,0 0,0 0,0 -0.118,78.649 -0.394,262.136 -0.394,262.162 0,0 0,0 0,0 -4.889,-0.06 -16.294,-0.2 -16.296,-0.2 0,0 0,0 0,0 0.085,-2.696 0.292,-6.289 0.282,-8.986 -0.02,-5.347 -0.144,-12.498 -0.782,-17.808 -0.498,-4.15 -1.522,-9.653 -2.654,-13.677 -1.154,-4.099 -2.698,-9.693 -4.967,-13.297 -1.827,-2.904 -4.987,-6.431 -7.857,-8.312 -1.683,-1.102 -4.306,-1.918 -6.253,-2.425 -1.097,-0.286 -2.603,-0.553 -3.737,-0.571 -1.219,-0.019 -4.036,0.495 -4.036,0.495 0,0 0,0 0,0 -2.377,2.953 -5.36,7.051 -7.924,9.845 -1.314,1.431 -3.075,3.371 -4.646,4.515 -2.053,1.497 -4.984,3.654 -7.512,3.916 -1.47,0.152 -3.573,-0.308 -4.789,-1.146 -1.472,-1.013 -2.586,-3.323 -3.287,-4.967 -0.645,-1.513 -1.22,-5.347 -1.221,-5.347 0,0 0,0 0,0 -3.127,1.948 -7.074,4.958 -10.423,6.494 -2.66,1.219 -6.379,2.724 -9.296,2.96 -1.812,0.146 -4.481,0.218 -6.01,-0.764 -1.371,-0.88 -2.433,-3.026 -2.911,-4.584 -0.469,-1.529 -0.307,-3.737 -0.164,-5.33 0.089,-1.003 0.661,-3.289 0.661,-3.29 0,0 0,0 0,0 -3.661,0.696 -8.497,1.92 -12.201,2.318 -3.071,0.329 -7.213,0.556 -10.291,0.299 -2.26,-0.189 -5.439,-0.324 -7.424,-1.42 -2.012,-1.112 -4.595,-3.396 -5.219,-5.607 -0.526,-1.866 0.481,-4.545 1.177,-6.354 0.893,-2.323 4.409,-7.026 4.41,-7.027 0,0 0,0 0,0 -1.698,-0.494 -4.037,-0.942 -5.66,-1.645 -1.88,-0.814 -4.274,-2.21 -5.863,-3.503 -1.579,-1.286 -3.485,-3.288 -4.591,-4.997 -1.133,-1.751 -2.763,-4.305 -2.739,-6.39 0.016,-1.384 1.044,-3.083 1.773,-4.26 1.181,-1.908 3.228,-4.185 4.993,-5.571 1.868,-1.465 4.802,-2.785 6.986,-3.715 1.5,-0.639 5.155,-1.723 5.155,-1.724 0,0 0,0 0,0 -0.127,-0.646 -0.347,-1.5 -0.424,-2.154 -0.198,-1.691 -0.469,-4.003 -0.141,-5.674 0.298,-1.52 1.041,-3.563 2.048,-4.74 1.176,-1.374 3.425,-2.56 5.128,-3.167 1.162,-0.414 2.834,-0.611 4.067,-0.601 2.866,0.023 6.692,0.813 9.381,1.802 2.171,0.798 6.735,3.748 6.736,3.748 0,0 0,0 0,0 0.682,-1.346 1.375,-3.275 2.274,-4.488 1.005,-1.356 2.594,-3.073 4.078,-3.875 1.29,-0.697 3.285,-1.066 4.747,-1.156 1.816,-0.112 4.27,0.245 6.018,0.747 1.809,0.52 4.07,1.685 5.684,2.653 2.12,1.271 4.717,3.34 6.563,4.984 1.234,1.098 2.481,3.006 3.838,3.948 0.121,0.084 0.324,0.316 0.437,0.222 -0.007,-0.125 0.04,-0.035 0,0 0.236,-1.973 1.094,-4.287 1.918,-5.9 0.72,-1.409 1.928,-3.19 3.053,-4.302 1.01,-0.998 2.487,-2.444 3.882,-2.706 1.266,-0.238 2.995,0.476 4.183,0.976 1.386,0.582 3.113,1.689 4.215,2.712 2.729,2.532 5.332,6.895 7.14,10.149 1.966,3.537 3.779,8.655 5.248,12.425 1.559,3.999 2.77,9.701 4.818,13.473 1.533,2.825 4.188,6.263 6.418,8.577 1.542,1.601 4.056,3.238 5.723,4.709 2.904,2.561 6.665,6.107 9.344,8.903 2.949,3.077 9.343,10.7 9.344,10.701 0,0 0,0 0,0 -0.393,-7.516 -0.158,-17.617 -1.309,-25.055 -0.538,-3.48 -1.624,-8.08 -2.802,-11.399 -1.436,-4.046 -3.963,-9.231 -6.164,-12.918 -2.758,-4.622 -6.908,-10.568 -10.648,-14.439 -3.238,-3.351 -8.511,-6.766 -12.141,-9.688 -2.288,-1.842 -5.732,-3.904 -7.601,-6.17 -1.392,-1.688 -3.39,-4.21 -3.509,-6.395 -0.064,-1.181 0.715,-2.698 1.316,-3.717 1.017,-1.727 2.843,-3.83 4.532,-4.908 2.508,-1.599 9.504,-2.825 9.505,-2.825 0,0 0,0 0,0 -1.755,-2.676 -4.147,-6.211 -5.849,-8.922 -3.338,-5.318 -9.127,-11.901 -10.729,-17.972 -0.753,-2.858 -1.712,-7.335 -0.159,-9.849 0.699,-1.13 2.566,-1.79 3.81,-2.26 1.854,-0.7 4.527,-1.072 6.508,-1.13 2.109,-0.062 6.984,0.807 6.985,0.807 0,0 0,0 0,0 -1.81,-5.715 -4.715,-13.201 -6.032,-19.049 -0.721,-3.2 -1.354,-7.546 -1.588,-10.817 -0.19,-2.657 -1.072,-6.441 0,-8.879 0.724,-1.648 2.676,-3.394 4.286,-4.198 1.339,-0.668 3.425,-0.796 4.921,-0.807 1.88,-0.014 4.382,0.458 6.191,0.968 2.945,0.831 9.365,4.036 9.366,4.037"
       id="path839" />
    <path
       fill="#e86201"
       fill-rule="evenodd"
       stroke="none"
       d="m 641.595,681.601 c -2.563,-1.336 -4.696,-4.84 -6.708,-6.914 0.001,-0.039 8.302,-275.617 11.86,-393.739 4.652,0.04 10.865,-0.176 15.507,0.132 4.485,0.297 10.462,0.961 14.869,1.845 5.603,1.122 13.285,2.5 18.328,5.186 4.42,2.354 9.54,6.915 12.795,10.72 3.503,4.095 7.078,10.471 9.226,15.414 1.856,4.269 3.426,10.332 4.355,14.893 0.734,3.611 1.154,8.523 1.48,12.194 0.527,5.922 1.07,13.846 1.054,19.792 -0.014,5.095 -0.511,11.882 -0.966,16.957 -1.228,13.691 -3.955,31.83 -5.872,45.442 -2.296,16.302 -5.425,38.036 -8.295,54.247 -5.861,33.101 -14.763,77.057 -22.507,109.768 -4.619,19.508 -10.594,45.641 -17.166,64.58 -1.885,5.431 -4.539,12.683 -7.346,17.7 -1.388,2.482 -3.503,5.681 -5.444,7.759 -1.396,1.494 -3.387,3.518 -5.263,4.334 -1.321,0.575 -3.307,0.754 -4.747,0.723 -1.578,-0.034 -3.76,-0.303 -5.16,-1.033 m 5.152,-400.653 c 0,0 0,0 0,0 z"
       id="path841" />
    <path
       fill="none"
       stroke="#e86201"
       stroke-width="1"
       stroke-linecap="round"
       stroke-linejoin="round"
       d="m 634.887,674.687 c 0,0 0,0 0,0 2.012,2.074 4.145,5.578 6.708,6.914 1.4,0.73 3.582,0.999 5.16,1.033 1.44,0.031 3.426,-0.148 4.747,-0.723 1.876,-0.816 3.867,-2.84 5.263,-4.334 1.941,-2.078 4.056,-5.277 5.444,-7.759 2.807,-5.017 5.461,-12.269 7.346,-17.7 6.572,-18.939 12.547,-45.072 17.166,-64.58 7.744,-32.711 16.646,-76.667 22.507,-109.768 2.87,-16.211 5.999,-37.945 8.295,-54.247 1.917,-13.612 4.644,-31.751 5.872,-45.442 0.455,-5.075 0.952,-11.862 0.966,-16.957 0.016,-5.946 -0.527,-13.87 -1.054,-19.792 -0.326,-3.671 -0.746,-8.583 -1.48,-12.194 -0.929,-4.561 -2.499,-10.624 -4.355,-14.893 -2.148,-4.943 -5.723,-11.319 -9.226,-15.414 -3.255,-3.805 -8.375,-8.366 -12.795,-10.72 -5.043,-2.686 -12.725,-4.064 -18.328,-5.186 -4.407,-0.884 -10.384,-1.548 -14.869,-1.845 -4.642,-0.308 -10.855,-0.092 -15.507,-0.132 0,0 0,0 0,0 -3.558,118.122 -11.859,393.7 -11.86,393.739"
       id="path843" />
    <path
       fill="#ff7900"
       fill-rule="evenodd"
       stroke="none"
       d="m 649.614,630.231 c -3.88,13.544 -10.211,31.248 -14.586,44.64 -10e-4,-10e-4 -3.74,-6.895 -5.064,-9.981 -2.793,-6.514 -5.607,-15.565 -7.674,-22.345 -5.403,-17.722 -11.274,-41.742 -15.53,-59.774 -5.675,-24.041 -12.456,-56.285 -17.008,-80.564 -4.873,-25.992 -10.521,-60.809 -14.243,-86.99 -1.889,-13.285 -4.619,-31.001 -5.477,-44.392 -0.625,-9.752 -1.514,-22.878 -0.288,-32.573 0.992,-7.851 3.556,-18.24 6.644,-25.525 1.667,-3.932 4.528,-8.947 7.202,-12.276 2.48,-3.088 6.384,-6.772 9.657,-9.002 2.794,-1.904 6.986,-3.707 10.147,-4.91 3.196,-1.216 7.628,-2.37 10.966,-3.11 3.721,-0.825 8.749,-1.649 12.543,-2.007 5.962,-0.564 13.97,-0.332 19.957,-0.474 1.896,0.54 4.528,0.978 6.322,1.799 4.233,1.936 9.465,5.552 12.737,8.864 4.193,4.244 8.361,11.216 11.005,16.565 3.411,6.902 6.322,16.851 8.194,24.319 1.927,7.682 3.569,18.156 4.362,26.036 1.43,14.212 1.724,33.32 1.269,47.597 -0.32,10.036 -1.651,23.38 -2.89,33.345 -4.273,34.361 -12.486,79.855 -19.55,113.753 -4.85,23.273 -12.149,54.152 -18.695,77.005 M 646.86,280.948 c 0,0 0,0 0,0 z"
       id="path845" />
    <path
       fill="none"
       stroke="#ff7900"
       stroke-width="1"
       stroke-linecap="round"
       stroke-linejoin="round"
       d="m 635.028,674.871 c 0,0 0,0 0,0 4.375,-13.392 10.706,-31.096 14.586,-44.64 6.546,-22.853 13.845,-53.732 18.695,-77.005 7.064,-33.898 15.277,-79.392 19.55,-113.753 1.239,-9.965 2.57,-23.309 2.89,-33.345 0.455,-14.277 0.161,-33.385 -1.269,-47.597 -0.793,-7.88 -2.435,-18.354 -4.362,-26.036 -1.872,-7.468 -4.783,-17.417 -8.194,-24.319 -2.644,-5.349 -6.812,-12.321 -11.005,-16.565 -3.272,-3.312 -8.504,-6.928 -12.737,-8.864 -1.794,-0.821 -4.426,-1.259 -6.322,-1.799 0,0 0,0 0,0 -5.987,0.142 -13.995,-0.09 -19.957,0.474 -3.794,0.358 -8.822,1.182 -12.543,2.007 -3.338,0.74 -7.77,1.894 -10.966,3.11 -3.161,1.203 -7.353,3.006 -10.147,4.91 -3.273,2.23 -7.177,5.914 -9.657,9.002 -2.674,3.329 -5.535,8.344 -7.202,12.276 -3.088,7.285 -5.652,17.674 -6.644,25.525 -1.226,9.695 -0.337,22.821 0.288,32.573 0.858,13.391 3.588,31.107 5.477,44.392 3.722,26.181 9.37,60.998 14.243,86.99 4.552,24.279 11.333,56.523 17.008,80.564 4.256,18.032 10.127,42.052 15.53,59.774 2.067,6.78 4.881,15.831 7.674,22.345 1.324,3.086 5.063,9.98 5.064,9.981"
       id="path847" />
    <path
       fill="#d44f02"
       fill-rule="evenodd"
       stroke="none"
       d="m 671.327,347.807 c 0,0 0,0 0,0 3.408,-0.018 7.962,0.194 11.36,-0.061 3.657,-0.274 8.5,-1.042 12.093,-1.771 4.717,-0.957 10.952,-2.557 15.514,-4.092 3.979,-1.339 9.055,-3.738 12.947,-5.314 0,0 0.536,5.254 0.672,7.512 0.188,3.111 0.306,10.382 0.306,10.383 -7.421,-0.018 -17.354,0.691 -24.736,-0.061 -6.153,-0.626 -14.239,-2.444 -20.216,-4.031 -2.419,-0.642 -7.939,-2.565 -7.94,-2.565 0,0 0,0 0,0 z"
       id="path849" />
    <path
       fill="none"
       stroke="#d44f02"
       stroke-width="1"
       stroke-linecap="round"
       stroke-linejoin="round"
       d="m 724.219,354.464 c 0,0 0,0 0,0 0,-10e-4 -0.118,-7.272 -0.306,-10.383 -0.136,-2.258 -0.672,-7.512 -0.672,-7.512 -3.892,1.576 -8.968,3.975 -12.947,5.314 -4.562,1.535 -10.797,3.135 -15.514,4.092 -3.593,0.729 -8.436,1.497 -12.093,1.771 -3.398,0.255 -7.952,0.043 -11.36,0.061 0,0 0,0 0,0 10e-4,0 5.521,1.923 7.94,2.565 5.977,1.587 14.063,3.405 20.216,4.031 7.382,0.752 17.315,0.043 24.736,0.061 m -52.892,-6.657 c 0,0 0,0 0,0"
       id="path851" />
    <path
       fill="#d44f02"
       fill-rule="evenodd"
       stroke="none"
       d="m 665.063,449.444 c 0,0 0,0 0,0 1.931,-0.054 4.509,-0.069 6.438,-0.179 4.321,-0.246 10.097,-0.604 14.366,-1.311 5.123,-0.849 11.883,-2.481 16.811,-4.114 3.957,-1.311 8.972,-3.755 12.817,-5.365 0,0 -0.353,3.216 -0.537,4.591 -0.529,3.963 -2.026,13.173 -2.026,13.174 -6.671,-0.054 -15.607,0.564 -22.236,-0.179 -5.581,-0.626 -12.915,-2.345 -18.301,-3.934 -2.247,-0.663 -7.332,-2.683 -7.332,-2.683 0,0 0,0 0,0 z"
       id="path853" />
    <path
       fill="none"
       stroke="#d44f02"
       stroke-width="1"
       stroke-linecap="round"
       stroke-linejoin="round"
       d="m 712.932,456.24 c 0,0 0,0 0,0 0,-0.001 1.497,-9.211 2.026,-13.174 0.184,-1.375 0.537,-4.591 0.537,-4.591 -3.845,1.61 -8.86,4.054 -12.817,5.365 -4.928,1.633 -11.688,3.265 -16.811,4.114 -4.269,0.707 -10.045,1.065 -14.366,1.311 -1.929,0.11 -4.507,0.125 -6.438,0.179 0,0 0,0 0,0 0,0 5.085,2.02 7.332,2.683 5.386,1.589 12.72,3.308 18.301,3.934 6.629,0.743 15.565,0.125 22.236,0.179 m -47.869,-6.796 c 0,0 0,0 0,0"
       id="path855" />
    <path
       fill="#d44f02"
       fill-rule="evenodd"
       stroke="none"
       d="m 651.59,576.173 c 0,0 0,0 0,0 4.41,-0.178 10.31,-0.148 14.702,-0.594 4.676,-0.475 10.912,-1.35 15.459,-2.541 2.813,-0.737 6.401,-2.25 9.134,-3.243 0,0 -3.017,13.179 -3.018,13.18 -2.84,0.003 -6.639,0.271 -9.468,0.009 -4.509,-0.418 -10.428,-1.776 -14.81,-2.919 -3.662,-0.955 -11.998,-3.891 -11.999,-3.892 0,0 0,0 0,0 z"
       id="path857" />
    <path
       fill="none"
       stroke="#d44f02"
       stroke-width="1"
       stroke-linecap="round"
       stroke-linejoin="round"
       d="m 687.867,582.975 c 0,0 0,0 0,0 0.001,-10e-4 3.018,-13.18 3.018,-13.18 -2.733,0.993 -6.321,2.506 -9.134,3.243 -4.547,1.191 -10.783,2.066 -15.459,2.541 -4.392,0.446 -10.292,0.416 -14.702,0.594 0,0 0,0 0,0 10e-4,10e-4 8.337,2.937 11.999,3.892 4.382,1.143 10.301,2.501 14.81,2.919 2.829,0.262 6.628,-0.006 9.468,-0.009 m -36.277,-6.802 c 0,0 0,0 0,0"
       id="path859" />
    <path
       fill="#d44f02"
       fill-rule="evenodd"
       stroke="none"
       d="m 620.947,386.025 c 0,0 0,0 0,0 -2.919,-0.266 -6.815,-0.586 -9.731,-0.885 -5.226,-0.535 -12.258,-0.916 -17.397,-2.005 -5.004,-1.059 -11.484,-3.286 -16.277,-5.072 -2.236,-0.833 -5.106,-2.219 -7.313,-3.125 0,0 0.318,4.835 0.531,6.9 0.333,3.23 1.415,10.732 1.415,10.733 7.236,0 16.937,0.866 24.121,0 3.911,-0.471 8.99,-1.933 12.797,-2.949 3.591,-0.958 11.853,-3.597 11.854,-3.597 0,0 0,0 0,0 z"
       id="path861" />
    <path
       fill="none"
       stroke="#d44f02"
       stroke-width="1"
       stroke-linecap="round"
       stroke-linejoin="round"
       d="m 572.175,392.571 c 0,0 0,0 0,0 0,-0.001 -1.082,-7.503 -1.415,-10.733 -0.213,-2.065 -0.531,-6.9 -0.531,-6.9 2.207,0.906 5.077,2.292 7.313,3.125 4.793,1.786 11.273,4.013 16.277,5.072 5.139,1.089 12.171,1.47 17.397,2.005 2.916,0.299 6.812,0.619 9.731,0.885 0,0 0,0 0,0 -10e-4,0 -8.263,2.639 -11.854,3.597 -3.807,1.016 -8.886,2.478 -12.797,2.949 -7.184,0.866 -16.885,0 -24.121,0 m 48.772,-6.546 c 0,0 0,0 0,0"
       id="path863" />
    <path
       fill="#d44f02"
       fill-rule="evenodd"
       stroke="none"
       d="m 635.965,520.638 c 0,0 0,0 0,0 -3.478,-0.354 -8.119,-0.783 -11.591,-1.182 -4.549,-0.524 -10.669,-0.957 -15.139,-1.952 -5.471,-1.218 -17.771,-5.766 -17.771,-5.766 0.356,1.676 0.829,3.911 1.173,5.589 0.594,2.889 1.932,9.638 1.932,9.639 5.322,-0.177 12.454,0.043 17.741,-0.591 3.396,-0.408 7.851,-1.451 11.177,-2.248 3.78,-0.905 12.477,-3.488 12.478,-3.489 0,0 0,0 0,0 z"
       id="path865" />
    <path
       fill="none"
       stroke="#d44f02"
       stroke-width="1"
       stroke-linecap="round"
       stroke-linejoin="round"
       d="m 594.569,526.966 c 0,0 0,0 0,0 0,-10e-4 -1.338,-6.75 -1.932,-9.639 -0.344,-1.678 -0.817,-3.913 -1.173,-5.589 0,0 12.3,4.548 17.771,5.766 4.47,0.995 10.59,1.428 15.139,1.952 3.472,0.399 8.113,0.828 11.591,1.182 0,0 0,0 0,0 -10e-4,10e-4 -8.698,2.584 -12.478,3.489 -3.326,0.797 -7.781,1.84 -11.177,2.248 -5.287,0.634 -12.419,0.414 -17.741,0.591 m 41.396,-6.328 c 0,0 0,0 0,0"
       id="path867" />
  </g>
  <text
     xml:space="preserve"
     id="text877"
     style="font-style:normal;font-variant:normal;font-weight:bold;font-stretch:normal;font-size:133.33299999999999841px;line-height:1.25;font-family:sans-serif;-inkscape-font-specification:'sans-serif, Bold';font-variant-ligatures:normal;font-variant-caps:normal;font-variant-numeric:normal;font-variant-east-asian:normal;white-space:pre;shape-inside:url(#rect879);fill:#1a1a1a;fill-opacity:1;stroke:none;"
     transform="matrix(1.2570981,0,0,1,-269.95083,91.132686)"><tspan
       x="511.58594"
       y="270.77068"><tspan
         style="font-style:normal;font-variant:normal;font-weight:bold;font-stretch:normal;font-size:133.333px;font-family:sans-serif;-inkscape-font-specification:'sans-serif, Bold';font-variant-ligatures:normal;font-variant-caps:normal;font-variant-numeric:normal;font-variant-east-asian:normal;fill:#1a1a1a">Happy </tspan></tspan><tspan
       x="511.58594"
       y="437.43694"><tspan
         style="font-style:normal;font-variant:normal;font-weight:bold;font-stretch:normal;font-size:133.333px;font-family:sans-serif;-inkscape-font-specification:'sans-serif, Bold';font-variant-ligatures:normal;font-variant-caps:normal;font-variant-numeric:normal;font-variant-east-asian:normal;fill:#1a1a1a">Carrot</tspan></tspan></text>
</svg>
